<svg width="32" height="32" viewBox="0 0 32 32" fill="none" xmlns="http://www.w3.org/2000/svg">
<g id="Layer 2">
<g id="menu">
<path id="Vector" d="M26.7333 14.667H5.26667C4.56711 14.667 4 15.2341 4 15.9337V16.067C4 16.7666 4.56711 17.3337 5.26667 17.3337H26.7333C27.4329 17.3337 28 16.7666 28 16.067V15.9337C28 15.2341 27.4329 14.667 26.7333 14.667Z" fill="#1A1A1A"/>
<path id="Vector_2" d="M26.7333 21.333H5.26667C4.56711 21.333 4 21.9001 4 22.5997V22.733C4 23.4326 4.56711 23.9997 5.26667 23.9997H26.7333C27.4329 23.9997 28 23.4326 28 22.733V22.5997C28 21.9001 27.4329 21.333 26.7333 21.333Z" fill="#1A1A1A"/>
<path id="Vector_3" d="M26.7333 8H5.26667C4.56711 8 4 8.56711 4 9.26667V9.4C4 10.0996 4.56711 10.6667 5.26667 10.6667H26.7333C27.4329 10.6667 28 10.0996 28 9.4V9.26667C28 8.56711 27.4329 8 26.7333 8Z" fill="#1A1A1A"/>
</g>
</g>
</svg>
